#!OML:ASF F:\VICON\USERDATA\INSTALL\rory3\rory3.ASF
:FULLY-SPECIFIED
:DEGREES
1130
root -0.841339 17.5135 4.42129 -362.749 -83.1684 369.89
lowerback 5.83014 -0.57033 -4.19992
upperback 0.740862 -0.987834 2.12069
thorax -2.39685 -0.454581 4.63755
lowerneck -18.4802 -5.02248 -16.0425
upperneck -25.1534 -4.49172 12.5884
head -4.11063 -2.07457 6.7912
rclavicle 4.57205e-015 4.37326e-015
rhumerus -38.8392 -15.6369 -45.9793
rradius 49.6463
rwrist -3.0752
rhand -33.4011 -0.0343552
rfingers 7.12502
rthumb -6.6014 -29.9115
lclavicle 4.57205e-015 4.37326e-015
lhumerus -41.9124 6.27605 82.1691
lradius 56.1373
lwrist -4.8343
lhand -23.0527 16.6542
lfingers 7.12502
lthumb 3.39219 46.6069
rfemur -22.892 6.08151 10.7802
rtibia 38.301
rfoot -19.5194 1.23746
rtoes 3.3327
lfemur -17.8157 -7.34308 -15.1736
ltibia 30.2638
lfoot -16.7447 2.35456
ltoes -11.4135
1131
root -0.837663 17.5181 4.46741 -362.932 -83.6832 370.006
lowerback 5.67931 -0.589591 -4.25834
upperback 0.792268 -1.01218 2.08578
thorax -2.25612 -0.471256 4.6322
lowerneck -18.5455 -5.08345 -16.124
upperneck -25.2819 -4.55438 12.7582
head -4.12411 -2.11209 6.86487
rclavicle 2.14687e-014 -1.31198e-014
rhumerus -37.8958 -15.9255 -45.5091
rradius 50.5526
rwrist -2.55518
rhand -33.5758 0.165213
rfingers 7.12502
rthumb -6.77008 -29.7066
lclavicle 2.14687e-014 -1.31198e-014
lhumerus -41.6545 6.63009 81.9993
lradius 56.2372
lwrist -5.18802
lhand -23.1752 16.5805
lfingers 7.12502
lthumb 3.27392 46.5351
rfemur -22.8213 6.3556 10.6559
rtibia 38.0669
rfoot -19.3129 1.35326
rtoes 3.2216
lfemur -17.5804 -6.8554 -15.3409
ltibia 30.1802
lfoot -16.8107 2.43286
ltoes -11.982
1132
root -0.843668 17.5202 4.52033 -364.45 -84.3147 371.376
lowerback 5.48614 -0.60551 -4.30217
upperback 0.859693 -1.03042 1.98078
thorax -2.07738 -0.486439 4.54377
lowerneck -18.3944 -5.13029 -16.503
upperneck -25.5244 -4.5364 13.25
head -4.18927 -2.09927 7.11329
rclavicle 2.78299e-015 -8.34896e-015
rhumerus -36.879 -16.0372 -45.116
rradius 51.5185
rwrist -2.07356
rhand -33.5019 0.333601
rfingers 7.12502
rthumb -6.69876 -29.5404
lclavicle 2.78299e-015 -8.34896e-015
lhumerus -41.4557 6.91797 81.8032
lradius 56.413
lwrist -5.26333
lhand -23.4042 16.5723
lfingers 7.12502
lthumb 3.05272 46.5302
rfemur -22.6834 6.69578 10.3798
rtibia 37.8612
rfoot -19.0439 1.64599
rtoes 4.0871
lfemur -17.1909 -6.57266 -15.6645
ltibia 30.0909
lfoot -16.8929 2.7398
ltoes -12.2795
1133
root -0.844152 17.5202 4.56911 -369.06 -84.8624 375.819
lowerback 5.45405 -0.570718 -4.69488
upperback 0.860577 -1.00757 1.84959
thorax -2.05647 -0.472669 4.62756
lowerneck -18.1403 -5.21071 -17.0289
upperneck -25.768 -4.5433 13.7913
head -4.25956 -2.08754 7.40619
rclavicle -5.96354e-015 -3.57812e-015
rhumerus -35.9948 -15.9507 -44.6108
rradius 52.6689
rwrist -1.84559
rhand -33.5732 0.548685
rfingers 7.12502
rthumb -6.76753 -29.3232
lclavicle -5.96354e-015 -3.57812e-015
lhumerus -41.2581 6.88878 81.746
lradius 56.5457
lwrist -4.89866
lhand -23.7925 16.6808
lfingers 7.12502
lthumb 2.67775 46.6438
rfemur -22.5557 6.95065 9.84939
rtibia 37.7088
rfoot -18.8068 1.91121
rtoes 3.99056
lfemur -16.7701 -6.50668 -16.2181
ltibia 29.9944
lfoot -16.987 3.00557
ltoes -11.5499
1134
root -0.838165 17.5222 4.61395 -372.781 -85.3728 379.471
lowerback 5.37261 -0.557996 -5.04221
upperback 0.816 -1.00797 1.77339
thorax -2.05221 -0.469137 4.74416
lowerneck -17.9808 -5.18808 -16.9859
upperneck -25.9114 -4.56013 13.7925
head -4.32516 -2.1084 7.40958
rclavicle -9.64106e-015 2.38542e-015
rhumerus -35.1347 -15.9969 -44.1981
rradius 53.9796
rwrist -1.5216
rhand -33.9643 1.00736
rfingers 7.12502
rthumb -7.14508 -28.852
lclavicle -9.64106e-015 2.38542e-015
lhumerus -40.9123 6.89156 81.6599
lradius 56.4924
lwrist -4.57895
lhand -23.8767 17.1248
lfingers 7.12502
lthumb 2.59646 47.0888
rfemur -22.5681 7.19679 9.5001
rtibia 37.5552
rfoot -18.5325 2.00961
rtoes 3.11243
lfemur -16.5255 -6.24252 -16.5885
ltibia 29.9224
lfoot -17.0734 3.15815
ltoes -11.57
1135
root -0.825637 17.5273 4.65285 -374.997 -85.7884 381.896
lowerback 5.03751 -0.665066 -5.3371
upperback 0.719913 -1.15025 1.74094
thorax -1.94178 -0.538385 4.88109
lowerneck -18.1044 -5.09726 -16.7501
upperneck -25.8308 -4.49258 13.6585
head -4.30417 -2.09458 7.32073
rclavicle -1.00883e-014 -1.59028e-015
rhumerus -34.0481 -16.0335 -44.0294
rradius 55.3775
rwrist -0.912774
rhand -34.3246 1.46027
rfingers 7.12502
rthumb -7.49293 -28.387
lclavicle -1.00883e-014 -1.59028e-015
lhumerus -40.5025 7.11631 81.463
lradius 56.3735
lwrist -4.34076
lhand -23.6847 17.4049
lfingers 7.12502
lthumb 2.78187 47.3666
rfemur -22.861 7.30139 9.31207
rtibia 37.4006
rfoot -18.2685 1.96968
rtoes 2.12273
lfemur -16.6935 -5.34346 -16.7583
ltibia 29.8871
lfoot -17.138 2.49619
ltoes -11.2523
1136
root -0.827092 17.5263 4.70298 -376.199 -86.298 382.743
lowerback 5.06445 -0.719263 -5.27144
upperback 0.796121 -1.22036 1.73662
thorax -1.87081 -0.578411 4.84308
lowerneck -18.0978 -5.06389 -16.7674
upperneck -25.8117 -4.47048 13.6068
head -4.30604 -2.08552 7.3071
rclavicle -2.88238e-015 -2.78299e-015
rhumerus -32.9053 -16.0009 -43.7583
rradius 56.8001
rwrist -0.25306
rhand -34.3281 1.82854
rfingers 7.12502
rthumb -7.49629 -28.0186
lclavicle -2.88238e-015 -2.78299e-015
lhumerus -40.1312 7.21504 81.3792
lradius 56.3681
lwrist -3.92305
lhand -23.564 17.5882
lfingers 7.12502
lthumb 2.89839 47.5483
rfemur -22.4815 7.66756 9.28023
rtibia 37.184
rfoot -18.1937 2.04815
rtoes 1.73033
lfemur -16.2227 -5.03368 -16.859
ltibia 29.9403
lfoot -17.3064 2.45947
ltoes -10.5996
1137
root -0.821425 17.5263 4.74037 -377.216 -86.8291 383.567
lowerback 5.08924 -0.78623 -5.2817
upperback 0.741425 -1.31128 1.76826
thorax -1.92918 -0.620422 4.8889
lowerneck -17.8491 -4.99928 -17.0246
upperneck -25.9296 -4.38576 13.695
head -4.38223 -2.03356 7.3984
rclavicle 0 -9.54166e-015
rhumerus -31.7 -15.7561 -43.5284
rradius 58.2793
rwrist 0.407453
rhand -34.5655 2.43263
rfingers 7.12502
rthumb -7.72544 -27.4063
lclavicle 0 -9.54166e-015
lhumerus -39.7991 7.12384 81.2708
lradius 56.3159
lwrist -3.5103
lhand -23.5376 17.9051
lfingers 7.12502
lthumb 2.92392 47.8648
rfemur -22.2842 8.16815 9.28258
rtibia 36.949
rfoot -18.1376 2.26494
rtoes 3.30079
lfemur -15.967 -4.51891 -16.8529
ltibia 30.0483
lfoot -17.5158 2.32661
ltoes -9.75978
1138
root -0.820222 17.5238 4.78471 -380.769 -87.3409 386.893
lowerback 5.06873 -0.831059 -5.14087
upperback 0.718998 -1.36434 1.66231
thorax -1.9403 -0.646982 4.70132
lowerneck -17.8133 -4.9813 -17.2353
upperneck -25.843 -4.33185 13.7869
head -4.35951 -1.99456 7.46569
rclavicle 2.5842e-015 -8.74653e-015
rhumerus -30.5805 -15.609 -43.4047
rradius 59.8646
rwrist 1.14214
rhand -35.0046 3.01907
rfingers 7.12502
rthumb -8.14925 -26.8038
lclavicle 2.5842e-015 -8.74653e-015
lhumerus -39.3458 6.82944 81.0665
lradius 56.1652
lwrist -3.21192
lhand -23.4505 18.1918
lfingers 7.12502
lthumb 3.00804 48.1504
rfemur -22.0561 8.5823 9.14987
rtibia 36.7019
rfoot -17.9878 2.55367
rtoes 4.7472
lfemur -15.6638 -4.18547 -17.0354
ltibia 30.1915
lfoot -17.6907 2.62373
ltoes -10.2648
